<svg width="18" height="21" viewBox="0 0 18 21" fill="none" xmlns="http://www.w3.org/2000/svg">
<path fill-rule="evenodd" clip-rule="evenodd" d="M16 6L14.6977 17.7209C14.5851 18.7337 13.729 19.5 12.7099 19.5H5.29009C4.27099 19.5 3.41486 18.7337 3.30232 17.7209L2 6H16ZM11.5401 0.25C11.832 0.25 12.1093 0.377563 12.2993 0.599209L13.2007 1.65079C13.3907 1.87244 13.668 2 13.9599 2H17.2C17.6418 2 18 2.35817 18 2.8V3.45C18 3.89183 17.6418 4.25 17.2 4.25H0.8C0.358172 4.25 0 3.89183 0 3.45V2.8C0 2.35817 0.358172 2 0.8 2H4.04007C4.33199 2 4.60934 1.87244 4.79932 1.65079L5.70068 0.599209C5.89066 0.377563 6.16801 0.25 6.45993 0.25H11.5401Z" fill="white"/>
</svg>
