<svg width="18" height="18" viewBox="0 0 18 18" fill="none" xmlns="http://www.w3.org/2000/svg">
<path fill-rule="evenodd" clip-rule="evenodd" d="M7.28111 10.475L7.382 10.5759C9.11928 12.2578 10.5732 13.0477 11.7437 12.9456L12.0811 12.6309C12.5608 12.1943 12.9226 11.9176 13.1663 11.8007C13.6738 11.5573 14.0299 11.5622 14.9916 12.0825C16.2569 12.7671 17.1305 13.5629 17.5769 14.0093C17.9914 14.4238 17.8626 15.1379 17.717 15.4546L17.6206 15.6313C17.3616 16.0813 16.4223 17.5658 14.6221 17.8198C13.938 17.9163 13.0744 17.8278 12.0618 17.5228C9.89273 16.7719 7.73271 15.3956 5.58173 13.3939L5.19919 13.0305L5.19559 13.0341L5.01097 12.8462L4.82293 12.6614L4.82654 12.6578L4.46313 12.2753C2.46143 10.1243 1.08511 7.96426 0.334171 5.7952C0.0291975 4.78262 -0.0592954 3.919 0.0372248 3.23487C0.309175 1.30731 1.99196 0.366772 2.30488 0.191547L2.33666 0.173614C2.6075 0.0174279 3.40133 -0.166261 3.84773 0.280134L4.05908 0.497498C4.51921 0.984121 5.18767 1.78087 5.77445 2.86534C6.29482 3.82709 6.29968 4.1832 6.0563 4.69065C5.91342 4.98858 5.53179 5.46278 4.91141 6.11325C4.80927 7.2838 5.59917 8.73771 7.28111 10.475Z" fill="black"/>
</svg>
