<svg width="20" height="18" viewBox="0 0 20 18" fill="none" xmlns="http://www.w3.org/2000/svg">
<path fill-rule="evenodd" clip-rule="evenodd" d="M11.6555 0.25C12.1583 0.25 12.6426 0.439367 13.0121 0.780393L14.3004 1.96961C14.6237 2.268 15.0349 2.45029 15.4695 2.4912L15.657 2.5H16.25C18.183 2.5 19.75 4.067 19.75 6V14C19.75 15.933 18.183 17.5 16.25 17.5H3.75C1.817 17.5 0.25 15.933 0.25 14V6C0.25 4.067 1.817 2.5 3.75 2.5H4.34303C4.84581 2.5 5.33015 2.31063 5.69959 1.96961L6.98791 0.780393C7.35735 0.439367 7.84169 0.25 8.34447 0.25H11.6555ZM10 4.75C7.23858 4.75 5 6.98858 5 9.75C5 12.5114 7.23858 14.75 10 14.75C12.7614 14.75 15 12.5114 15 9.75C15 6.98858 12.7614 4.75 10 4.75ZM10 6.25C11.933 6.25 13.5 7.817 13.5 9.75C13.5 11.683 11.933 13.25 10 13.25C8.067 13.25 6.5 11.683 6.5 9.75C6.5 7.817 8.067 6.25 10 6.25Z" fill="black"/>
</svg>
