<svg width="18" height="14" viewBox="0 0 18 14" fill="none" xmlns="http://www.w3.org/2000/svg">
<path fill-rule="evenodd" clip-rule="evenodd" d="M16.9121 0H1.08791L0.969372 0.00645465C0.424296 0.0661761 0 0.532988 0 1.1C0 1.70751 0.487075 2.2 1.08791 2.2H16.9121L17.0306 2.19355C17.5757 2.13382 18 1.66701 18 1.1C18 0.492487 17.5129 0 16.9121 0ZM1.08791 5.8H16.9121C17.5129 5.8 18 6.29249 18 6.9C18 7.46701 17.5757 7.93382 17.0306 7.99355L16.9121 8H1.08791C0.487075 8 0 7.50751 0 6.9C0 6.33299 0.424296 5.86618 0.969372 5.80645L1.08791 5.8ZM1.08791 11.6H16.9121C17.5129 11.6 18 12.0925 18 12.7C18 13.267 17.5757 13.7338 17.0306 13.7935L16.9121 13.8H1.08791C0.487075 13.8 0 13.3075 0 12.7C0 12.133 0.424296 11.6662 0.969372 11.6065L1.08791 11.6Z" fill="black"/>
</svg>
