<svg width="20" height="20" viewBox="0 0 20 20" fill="none" xmlns="http://www.w3.org/2000/svg">
<path fill-rule="evenodd" clip-rule="evenodd" d="M19.2637 3.23938C19.9459 2.55359 19.9444 1.44514 19.2604 0.761189L19.1323 0.64501C18.4451 0.0808307 17.4286 0.121295 16.7889 0.764507L8.32075 9.27821C7.56279 10.0403 7.02344 10.9919 6.75908 12.0337L6.40926 13.4123L6.41641 13.4655C6.43969 13.5502 6.51721 13.6123 6.60926 13.6123L7.94842 13.3049C9.05209 13.0516 10.0615 12.4911 10.8601 11.6883L19.2637 3.23938ZM9.25 3.56449C9.25 3.15028 8.91421 2.81449 8.5 2.81449H4L3.81558 2.81963C2.10645 2.91524 0.75 4.33146 0.75 6.06449V16.0645L0.755145 16.2489C0.850754 17.958 2.26697 19.3145 4 19.3145H14L14.1844 19.3093C15.8935 19.2137 17.25 17.7975 17.25 16.0645L17.2445 11.5636C17.244 11.1497 16.9083 10.8145 16.4945 10.8145H15.5C15.0858 10.8145 14.75 11.1503 14.75 11.5645V16.0645L14.7432 16.1663C14.6935 16.5323 14.3797 16.8145 14 16.8145H4L3.89823 16.8076C3.53215 16.758 3.25 16.4442 3.25 16.0645V6.06449L3.25685 5.96272C3.30651 5.59664 3.6203 5.31449 4 5.31449L8.50092 5.30896C8.91477 5.30845 9.25 4.97281 9.25 4.55896V3.56449Z" fill="black"/>
</svg>
