<svg width="18" height="20" viewBox="0 0 18 20" fill="none" xmlns="http://www.w3.org/2000/svg">
<path fill-rule="evenodd" clip-rule="evenodd" d="M11.25 17.75C11.25 18.9926 10.2426 20 9 20C7.80707 20 6.83097 19.0716 6.75479 17.8979L6.75 17.75H11.25ZM8.99166 0.75C12.3021 0.75 14.4033 3.05005 14.9858 6.74472L15.7902 12.5802C16.3567 14.7395 17.5 14.0023 17.5 15.1864C17.5 15.9399 16.7534 16.293 15.2602 16.2458L15.0418 16.2364H2.95818L2.73979 16.2458C1.2466 16.293 0.5 15.9399 0.5 15.1864C0.5 14.0445 1.56307 14.6893 2.14695 12.8007L2.20977 12.5802C2.20977 12.5802 2.83398 8.18267 3.01422 6.74472C3.58179 3.14479 5.59113 0.868868 8.75608 0.754521L8.99166 0.75Z" fill="black"/>
</svg>
