<svg width="31" height="23" viewBox="0 0 31 23" fill="none" xmlns="http://www.w3.org/2000/svg">
<path fill-rule="evenodd" clip-rule="evenodd" d="M24.3781 11.1404C24.3659 11.1381 24.3537 11.1357 24.3417 11.1333C23.581 11.9452 22.7497 12.3511 21.8476 12.3511C20.9454 12.3511 20.1049 11.9452 19.3259 11.1333C17.1466 10.9594 16.057 9.32659 16.057 6.23486C16.057 3.40438 17.194 1.54411 19.468 0.65405C19.5072 0.638699 19.5468 0.62463 19.5868 0.611837C19.5295 1.06649 19.5 1.52979 19.5 1.99997C19.5 5.80915 21.4362 9.16612 24.3781 11.1404ZM12.0049 14.4204C11.157 14.1922 10.33 14.08 9.30701 14.08C4.69089 14.08 1.41912 16.6524 0.547259 20.1263L0.521057 20.2524C0.507054 20.3371 0.5 20.4228 0.5 20.5088C0.5 21.3765 1.20343 22.0799 2.07116 22.08L9.90783 22.081C9.9499 22.081 9.99193 22.0782 10.0336 22.0726C10.5453 22.0032 10.9038 21.5321 10.8344 21.0204L10.8154 20.852C10.8052 20.739 10.8 20.6245 10.8 20.5088C10.8 20.3026 10.8169 20.0968 10.8671 19.8048L10.9134 19.5908L11.0111 19.2303C11.3811 17.9606 11.9005 16.8744 12.708 15.8859L12.796 15.7682C12.8362 15.7042 12.8677 15.635 12.8895 15.5623C13.0236 15.116 12.7705 14.6455 12.3242 14.5115L12.0049 14.4204ZM30.3695 19.9785C29.5295 16.4675 26.3205 14.08 21.807 14.08C17.1909 14.08 13.9191 16.6524 13.0473 20.1263L13.0211 20.2524C13.0071 20.3371 13 20.4228 13 20.5088C13 21.3765 13.7034 22.0799 14.5712 22.08H28.9074C29.0125 22.08 29.1173 22.0693 29.2202 22.048C30.0573 21.8753 30.5958 21.0567 30.4231 20.2196L30.3695 19.9785ZM13.7356 5.03015C13.8278 1.90052 12.2558 0.567974 10.6007 0.171428C8.98555 -0.215533 7.97844 0.0568418 7.57932 0.988554C7.1847 0.847197 6.76624 0.847197 6.32394 0.988554C5.20971 1.34688 4.6335 2.79058 4.59532 5.31964C4.23644 5.49239 4.05701 5.91321 4.05701 6.5821C4.05701 7.25099 4.23644 7.66409 4.59532 7.8214C5.55055 10.8711 7.13569 12.3959 9.35072 12.3959C11.5658 12.3959 13.023 10.8711 13.7226 7.8214C14.1043 7.60213 14.2951 7.18903 14.2951 6.5821C14.2951 5.90912 13.9576 5.57907 13.7998 5.42473C13.7441 5.37028 13.7108 5.33769 13.7226 5.31964L13.7356 5.03015Z" fill="#A4AAB2"/>
</svg>
