<svg width="22" height="14" viewBox="0 0 22 14" fill="none" xmlns="http://www.w3.org/2000/svg">
<path fill-rule="evenodd" clip-rule="evenodd" d="M12.5 0C14.1569 0 15.5 1.34315 15.5 3V11C15.5 12.6569 14.1569 14 12.5 14H3.5C1.84315 14 0.5 12.6569 0.5 11V3C0.5 1.34315 1.84315 0 3.5 0H12.5ZM21.3993 3.4711C21.4654 3.58994 21.5 3.72366 21.5 3.85961V10.1404C21.5 10.5822 21.1418 10.9404 20.7 10.9404C20.564 10.9404 20.4303 10.9057 20.3115 10.8397L17.5144 9.28575C17.1969 9.10938 17 8.77476 17 8.4116V5.5884C17 5.22524 17.1969 4.89062 17.5144 4.71425L20.3115 3.16029C20.6977 2.94572 21.1848 3.08487 21.3993 3.4711Z" fill="black"/>
</svg>
